<svg id="Camada_1" 
data-name="Camada 1" 
xmlns="http://www.w3.org/2000/svg" 
viewBox="0 0 494.68 449">
<defs>
<style>.cls-1{fill:#93c7dd;}.cls-2,.cls-3,.cls-4
{fill:#93c7dd;}.cls-2
{fill-rule:evenodd;}.cls-4
{font-size:56.59px;font-family:MicrosoftTaiLe-Bold, Microsoft Tai Le;font-weight:700;}
</style>
</defs>
<title>
facebookicon
</title>
<polygon class="cls-1"
points="223 0 464 81 485 354 265 449 0 364 19 130 223 0"/><path class="cls-2" d="M278.12,188.71V178c0-6.86,4.76-9.93,9.49-9.93H299V152.21H281.9c-9,0-15.65,2.84-19.78,8.43s-4.74,12.41-4.74,16v12.09a3.57,3.57,0,0,1-3.57,3.56h-9.75v19.62h9.87a3.56,3.56,0,0,1,3.56,3.56v63.24h19.62V215.45a3.56,3.56,0,0,1,3.56-3.56h16.54l.61-7.26,1.2-12.36H281.68A3.56,3.56,0,0,1,278.12,188.71Z"/><path class="cls-3" d="M322.61,283.8H184.9a21.17,21.17,0,0,1-21.15-21.16V124a21.17,21.17,0,0,1,21.15-21.15H322.61A21.18,21.18,0,0,1,343.76,124V262.64A21.18,21.18,0,0,1,322.61,283.8ZM184.9,117.09A6.91,6.91,0,0,0,178,124V262.64a6.92,6.92,0,0,0,6.91,6.91H322.61a6.92,6.92,0,0,0,6.91-6.91V124a6.91,6.91,0,0,0-6.91-6.9Z"/><text class="cls-4" transform="translate(130.15 351.52)">Facebook</text></svg>