<?xml version="1.0" encoding="utf-8"?>
<!-- Generator: Adobe Illustrator 23.0.1, SVG Export Plug-In . SVG Version: 6.00 Build 0)  -->
<svg version="1.1" id="Camada_1" xmlns="http://www.w3.org/2000/svg" xmlns:xlink="http://www.w3.org/1999/xlink" x="0px" y="0px"
	 viewBox="0 0 52.7 98.1" style="enable-background:new 0 0 52.7 98.1;" xml:space="preserve">
<style type="text/css">
	.st0{fill:#FDED8C;}
	.st1{fill-rule:evenodd;clip-rule:evenodd;fill:#FE007F;}
	.st2{fill-rule:evenodd;clip-rule:evenodd;fill:#93C7DD;}
	.st3{fill:#FE007F;}
	.st4{fill:#93C7DD;}
</style>
<path class="st2" d="M30.5,31v-7.2c0-4.6,3.2-6.7,6.4-6.7h7.7V6.5H33c-6,0-10.5,1.9-13.3,5.7c-2.8,3.8-3.2,8.3-3.2,10.7V31
	c0,1.3-1.1,2.4-2.4,2.4H7.6v8.4v4.8h6.6c1.3,0,2.4,1.1,2.4,2.4v42.5h13.2V49c0-1.3,1.1-2.4,2.4-2.4h11.1l0.4-4.9l0.8-8.3H32.9
	C31.6,33.4,30.5,32.3,30.5,31z"/>
</svg>
