<?xml version="1.0" encoding="utf-8"?>
<!-- Generator: Adobe Illustrator 23.0.1, SVG Export Plug-In . SVG Version: 6.00 Build 0)  -->
<svg version="1.1" id="Camada_1" xmlns="http://www.w3.org/2000/svg" xmlns:xlink="http://www.w3.org/1999/xlink" x="0px" y="0px"
	 viewBox="0 0 96.7 92.8" style="enable-background:new 0 0 96.7 92.8;" xml:space="preserve">
<style type="text/css">
	.st0{fill:#FDED8C;}
	.st1{fill-rule:evenodd;clip-rule:evenodd;fill:#FE007F;}
	.st2{fill-rule:evenodd;clip-rule:evenodd;fill:#93C7DD;}
	.st3{fill:#FE007F;}
	.st4{fill:#93C7DD;}
</style>
<g>
	<g>
		<path class="st4" d="M67.1,88.9H30.4c-13.3,0-24.2-10.9-24.2-24.2V28.1c0-13.3,10.9-24.2,24.2-24.2h36.6
			c13.3,0,24.2,10.9,24.2,24.2v36.6C91.3,78.1,80.4,88.9,67.1,88.9z M30.4,11.2c-9.3,0-16.9,7.6-16.9,16.9v36.6
			c0,9.3,7.6,16.9,16.9,16.9h36.6c9.3,0,16.9-7.6,16.9-16.9V28.1c0-9.3-7.6-16.9-16.9-16.9H30.4z"/>
	</g>
	<g>
		<path class="st4" d="M48.7,68.2c-12,0-21.8-9.8-21.8-21.8c0-12,9.8-21.8,21.8-21.8c12,0,21.8,9.8,21.8,21.8
			C70.5,58.4,60.8,68.2,48.7,68.2z M48.7,31.9c-8,0-14.5,6.5-14.5,14.5c0,8,6.5,14.5,14.5,14.5c8,0,14.5-6.5,14.5-14.5
			C63.2,38.4,56.7,31.9,48.7,31.9z"/>
	</g>
	<g>
		<path class="st4" d="M76.7,23.4c0,2.9-2.3,5.2-5.2,5.2c-2.9,0-5.2-2.3-5.2-5.2c0-2.9,2.3-5.2,5.2-5.2
			C74.3,18.2,76.7,20.5,76.7,23.4z"/>
	</g>
</g>
</svg>
