<svg id="Camada_1" data-name="Camada 1" xmlns="http://www.w3.org/2000/svg" viewBox="0 0 494.68 449"><defs><style>.cls-1{fill:#fded8c;}.cls-2{font-size:56.59px;font-family:MicrosoftTaiLe-Bold, Microsoft Tai Le;font-weight:700;}.cls-2,.cls-3{fill:#fe007f;}</style></defs><title>facebookicon</title><polygon class="cls-1" points="227.84 0 468.84 81 489.84 354 269.84 449 4.84 364 23.84 130 227.84 0"/><text class="cls-2" transform="translate(123.25 349.72)">Instagram</text><path class="cls-3" d="M298.32,284.5H217.56a53.42,53.42,0,0,1-53.36-53.36V150.37A53.42,53.42,0,0,1,217.56,97h80.76a53.42,53.42,0,0,1,53.36,53.36v80.77A53.42,53.42,0,0,1,298.32,284.5ZM217.56,113.08a37.34,37.34,0,0,0-37.3,37.29v80.77a37.34,37.34,0,0,0,37.3,37.29h80.76a37.33,37.33,0,0,0,37.29-37.29V150.37a37.33,37.33,0,0,0-37.29-37.29Z"/><path class="cls-3" d="M257.94,238.76a48,48,0,1,1,48-48A48.06,48.06,0,0,1,257.94,238.76Zm0-79.94a31.94,31.94,0,1,0,31.93,31.94A32,32,0,0,0,257.94,158.82Z"/><path class="cls-3" d="M319.54,140A11.54,11.54,0,1,1,308,128.47,11.54,11.54,0,0,1,319.54,140Z"/></svg>